<?xml version="1.0" encoding="utf-8"?>
<!-- Generator: Adobe Illustrator 24.3.0, SVG Export Plug-In . SVG Version: 6.00 Build 0)  -->
<svg version="1.1" id="Layer_1" xmlns="http://www.w3.org/2000/svg" xmlns:xlink="http://www.w3.org/1999/xlink" x="0px" y="0px"
	 viewBox="0 0 356 354" style="enable-background:new 0 0 356 354;" xml:space="preserve">
<style type="text/css">
	.st0{fill:#F2F2F2;}
	.st1{fill:none;stroke:#567944;stroke-width:5;}
	.st2{fill:#567944;}
</style>
<g id="Group_179" transform="translate(-753.747 -516.747)">
	<g id="IMG_5877" transform="translate(753.747 516.747)">
		<circle class="st0" cx="178" cy="178.5" r="178"/>
		<circle class="st1" cx="178" cy="178.5" r="175.5"/>
	</g>
	<path id="ic_account_circle_24px" class="st2" d="M931.7,629.5c-36.3,0-65.8,29.4-65.8,65.8s29.4,65.8,65.8,65.8
		s65.8-29.4,65.8-65.8l0,0C997.5,658.9,968.1,629.5,931.7,629.5z M931.7,649.2c10.9,0,19.7,8.8,19.7,19.7c0,10.9-8.8,19.7-19.7,19.7
		c-10.9,0-19.7-8.8-19.7-19.7C912,658.1,920.8,649.2,931.7,649.2C931.7,649.2,931.7,649.2,931.7,649.2z M931.7,742.6
		c-15.9,0-30.7-8-39.5-21.2c0.2-13.1,26.3-20.3,39.5-20.3c13.1,0,39.3,7.2,39.5,20.3C962.4,734.7,947.6,742.6,931.7,742.6
		L931.7,742.6z"/>
	<path id="ic_add_circle_outline_24px" class="st2" d="M996.9,624.5h-4.4v8.7h-8.7v4.4h8.7v8.7h4.4v-8.7h8.7v-4.4h-8.7V624.5z
		 M994.7,613.6c-12.1,0-21.8,9.8-21.8,21.8s9.8,21.8,21.8,21.8s21.8-9.8,21.8-21.8l0,0C1016.6,623.4,1006.8,613.6,994.7,613.6z
		 M994.7,652.9c-9.6,0-17.5-7.8-17.5-17.5c0-9.6,7.8-17.5,17.5-17.5c9.6,0,17.5,7.8,17.5,17.5
		C1012.2,645.1,1004.4,652.9,994.7,652.9z"/>
</g>
</svg>
